<svg id="Layer_1" data-name="Layer 1" xmlns="http://www.w3.org/2000/svg" viewBox="0 0 512 512"><defs><style>.cls-1{fill:#005430;}.cls-2{fill:#fff;}</style></defs><circle class="cls-1" cx="256" cy="256" r="256"/><g id="white"><g id="shahada"><path class="cls-2" d="M447,235.45c-.06-8.95-3.53-33-4.41-41.14s-1.77-15.42-1.55-17.14,2.76,2.31,4.11,2.63c.7-.14.38-2.65-.88-4.78-.86-1.45-3.79-6.88-5.56-10.06-.84-1.51-1-2.38-1.43-2.56s-3.63,6.33-3.27,7a6.81,6.81,0,0,1,1.62,4.3c.14,2.34,1.35,19,2.89,31.7,1.16,9.55,3.71,30.12,3.8,42.92a37.91,37.91,0,0,1-1,9.81c-1.43,2.61-3.66,5-11.95,9.82-9.33,5.46-21.78,10-27.12,13-3.33,1.9-2.23,2.15.67,1.32s17.82-3.49,25.08-6.56c6.81-2.88,11.23-7.71,14.58-14.75,4.15-8.7,4.46-16.09,4.41-25.6"/><path class="cls-2" d="M418.15,167.48a36,36,0,0,1,8.3-.26c-1.06,1.51-8.22,4.85-8.25,5.46.2.42,4.95-.76,6.44-1.41A11.82,11.82,0,0,0,427,169c1.71-2,3.74-5.62,3.23-6.08-.83-.74-9-.28-10-.13-.72.11-2.54,3.37-2.87,4.21s.11.75.83.47"/><path class="cls-2" d="M430.34,220.52a25.09,25.09,0,0,0-.14-14.71c-1.74-5.54-6.06-8.92-9.18-10.65l-.55,5.33a19.16,19.16,0,0,1,7.36,7.64A18.65,18.65,0,0,1,429,222c-.25,1.36.72.61,1.33-1.45"/><path class="cls-2" d="M384.11,247.27A22.58,22.58,0,0,0,384,234a17.18,17.18,0,0,0-8.27-9.58l-.5,4.8a17.21,17.21,0,0,1,6.63,6.87,16.87,16.87,0,0,1,1.07,12.47c-.22,1.21.65.54,1.19-1.31"/><path class="cls-2" d="M223.62,174.63a17.78,17.78,0,0,1,1.13,13.15c-.24,1.29.68.58,1.26-1.38a23.85,23.85,0,0,0-.14-14,18.14,18.14,0,0,0-8.72-10.12l-.52,5.07a18.2,18.2,0,0,1,7,7.25"/><path class="cls-2" d="M115.27,176.34c1.51,3.54,1.62,8.32-.82,13.36-.48,1.27.68.67,1.65-1.22a21.81,21.81,0,0,0,2.08-14.08c-1-5.5-5.16-9.25-8.26-11.28l-1.4,5a18.66,18.66,0,0,1,6.75,8.2"/><path class="cls-2" d="M145.22,255.54a32.21,32.21,0,0,0,3.58-10.19,49.51,49.51,0,0,0,.52-12.38c5.75-2.34,12.6-6.23,14.91-6.51-1.58,5.4,2.18,11.23,9.77,10.47.58,6.12,1.08,11.48,1.38,14.67.62,6.53.53,14.75.51,16.18s1,1.17,2.08-2c1.42-4.29,1.86-15.47,1.35-22.87-.13-1.85-.34-4.34-.59-7.19,4.92-2.27,5.74-6.67,7.58-8.54,1.66,5.82,10.8,6.6,13.62,5.36,3.5-1.55,4.64-4.33,5.54-10.78s-1.72-9-2.66-9.75c-.1.78-2.38,8.36-2.38,8.36s2.17,2.29,2.28,3.42c-1.77,1.6-5.5,1.7-8.63.68s-4.09-2.89-3.91-4.15,1.36-2.41,1.4-3.95-.7-1.09-1.95.27a29,29,0,0,0-3.8,5.52c-1.42,2.39-3.72,5.31-7.78,6.14-.67-7-1.44-14.5-1.95-19.2-.27-2.47-2.94-23.9-3.13-26.3-.16-2.08-.47-4.54-.42-5.7.05-.92.63-.56,1.52.41s2.46,2.64,2.73,2.5c.91-.44,0-3.23-1.21-5.72s-5.26-12.37-6.11-12.77c-.44-.21-3.19,5.86-3.35,7.06a8.32,8.32,0,0,1,1.58,5.27c0,.93.61,9.73,1.44,18.05.73,7.34,1.7,14.31,1.79,15.13.66,5.6,1.47,13.51,2.23,21.28-4.4-.84-5.58-3.75-5.48-5.41.11-1.87,1-4,.55-4.46-.85-.51-5.9,2.32-12.94,5.35-2,.85-4.22,1.77-6.57,2.63-.62-5.29-1.42-10.33-1.75-14.18l0-.43a14.46,14.46,0,0,0,10.15-4.86c2.16-2.79,3.66-8.52,3.81-12.91s-3.4-12.43-4.24-15a28.58,28.58,0,0,1-1.37-5.21c-.08-.89,1.92,1,3.17,1.4.85.17.56-1.67-.48-2.94s-6.6-9.71-7-9.12a71.72,71.72,0,0,0-2.62,7.53,5.26,5.26,0,0,1,2,3.71,63.49,63.49,0,0,0,2.66,12c1.36,3.74,4.27,10.93,4.46,12.9-2.08,1.47-6.81,4-11.49,3.8-.8-6.55-1.81-14.17-2.35-19.56a47.13,47.13,0,0,1-.19-5.46c0-.92.69-.8,1.6.15s2.32,2.32,2.61,2.22c.63-.21.08-2.29-1.16-4.77s-6.19-13-7.06-13.36c-.44-.2-2.65,5.69-2.79,6.89a8.44,8.44,0,0,1,1.68,5.24c.09,2.67,1.39,15.72,2.5,27.22-4.63-2.39-6.2-5.81-6.78-11.56-.4-4-.44-11.38-1.86-17.54-.81-3.49-2.5-7-4.51-8.92C127.18,164.83,125,172,125,172c.7,2,2.87,8.92,2.79,14.88s-.54,11.78-7.22,15.8-16.69,2.42-19.16-3.85,3-22,3-25.7-.73-4.22-2.28-3.61-4.72,4.19-7.45,10-4,13-5.5,18-4,9.87-7.85,9.59-5.9-3.77-7.08-8.85-.46-11.76-.14-13.47c.8-4.29-1-3.41-2.18,3.33-.71,4.15-1.4,10.79,1.07,17.74s6.67,9.53,10.36,8.65,6.93-9.54,8.07-13.42,6.25-21.11,9.15-22c.4,1.94-2.25,8.2-3.1,15.52s1.13,17.16,10.42,18.86a17,17,0,0,0,17.88-8.51,32.68,32.68,0,0,0,3.62-10.79c.29,5.61,4.13,14.38,11.57,16.88l.77.22c.46,4.6,1.2,10.6,1.89,16.9-1.45.45-2.91.86-4.37,1.2a13.83,13.83,0,0,0-.64-1.74c-2.27-4.88-6-9.39-11.24-9.08s-11.13,7.42-10.88,12.61c.17,3.49,2.09,6.36,9.08,7.09a31.93,31.93,0,0,0,10.08-.78,14.7,14.7,0,0,1,.84,4.18c-2.22,2.59-20.54,16.41-34.25,17.74s-17.9-5.87-18-13.08c-.1-5.5,3.2-11,5.52-14.77a37.74,37.74,0,0,0,7.77-7.81l1.33.8a6,6,0,0,1,2.3,2.38c.3-.47,1.71-3,1.16-4.24a21.4,21.4,0,0,0-3-2c1.57-3.9,1.55-7.79-.48-8.66-2.27-1-5.23,1.72-6.5,3.36a4.25,4.25,0,0,0-.92,2.62,3.32,3.32,0,0,0,1.69,2.83c1.21.82,2.33,1.57,3.39,2.24-3,3.15-10.08,7.76-14.42,10.47-.16-.39-.79,0-1.65,1l-1.17.73c-3.46,2.11-11.75,6.76-13.38,7.89s-.61.94,0,.68c1.15-.62,2.66-1.37,4.36-2.2,2.4-1.18,5.2-2.51,7.94-3.84a39.82,39.82,0,0,0-2.39,4.72c-3.26,7.71-8.54,23.67,2.87,33.28,10.92,9.2,29.68,5.7,45.24-3.86s18.92-12.92,21.35-16.39m-50.73-38c-.54-.4-.61-.93-.17-1.3a4.55,4.55,0,0,1,2.09-1.08c1.72-.32,2.41,1.66,1.72,4.75-1.31-.8-2.66-1.65-3.64-2.37m35.69,13c-7.92,0-8.29-1.4-8.14-2.32s2.62-3.43,5.75-1.77a14.24,14.24,0,0,1,4.19,4c-.61,0-1.21.07-1.8.07m-24.26,41.67c-15,4.08-29.58-2.25-30.46-14.78a36.71,36.71,0,0,1,5.07-20.84c2.14-1.07,4.17-2.1,5.85-3-3.92,6.31-6.22,14.76-4.68,21.92,1.73,8.11,8.79,13,20.73,11.44s27.82-12.82,32.36-17.06a18.94,18.94,0,0,0,3.53-5.72,17.25,17.25,0,0,0,1.5-4.4,25.38,25.38,0,0,0,.29-3.55c1.39-.41,2.78-.88,4.19-1.38.47,5.14.83,10.2.85,14.58-7.37,8.64-24.27,18.72-39.23,22.81"/><path class="cls-2" d="M367.75,239.38c-.51-8.38-1.73-23.56-2.41-31.26-.61-6.85-1.8-16.24-2.67-24.51a44.65,44.65,0,0,1-.22-5.23c0-.92.95-.57,1.86.38s2.35,2.12,2.62,2c.9-.47-.18-2.77-1.43-5.24s-6.25-12.71-7.12-13.1c-.44-.19-2.78,5.94-2.91,7.14a8.38,8.38,0,0,1,1.71,5.23c.13,3.35,1.82,18.74,3,31.19.84,8.65,1.94,22.76,2.73,33.41,0,0,.75,10.12.84,11.26.49,6.53.23,14.76.19,16.18s1,1.19,2.12-2,1.8-10.51,1.88-17.06Z"/><path class="cls-2" d="M325.25,210c-1.54.47-3.95-1.16-3.76-4.56.16-3.07,1.48-5.95,2-7.77.69-2.51.7-4.92.11-3.55-1.33,3.06-3.81,9-4.32,13s.79,6.61,2.56,7.49c2.2,1.11,3.79-.65,4.86-3.24s.84-5.37.13-4.69-.83,3.1-1.57,3.33"/><path class="cls-2" d="M303.18,222.4c.82-2.16,1-4.28.38-3.12-1.41,2.61-4.05,7.64-4.83,11.14s.17,5.87,1.65,6.76c1.86,1.12,3.39-.31,4.54-2.52s1.16-4.67.48-4.11-1,2.66-1.64,2.81c-1.39.31-3.38-1.28-2.95-4.26.39-2.69,1.78-5.14,2.37-6.7"/><path class="cls-2" d="M238.93,268c1.36-2.21,2-4.5,1.1-3.34-2.11,2.58-6.1,7.6-7.71,11.28s-1.09,6.44.34,7.7c1.78,1.57,3.77.28,5.51-1.91s2.29-4.89,1.42-4.42-1.64,2.74-2.41,2.78c-1.59.08-3.41-2-2.29-5.21,1-2.87,3.06-5.28,4-6.88"/><path class="cls-2" d="M351.58,203.59c-1.56.39-3.87-1.36-3.49-4.75.36-3.06,1.85-5.86,2.46-7.65.85-2.47,1-4.88.32-3.54-1.5,3-4.33,8.77-5.09,12.75s.39,6.64,2.11,7.61c2.13,1.22,3.82-.45,5.05-3s1.16-5.32.4-4.67-1,3.05-1.76,3.24"/><path class="cls-2" d="M351.1,245.19c2.13,1.21,3.83-.46,5-3s1.16-5.32.41-4.68-1,3-1.77,3.24c-1.56.39-3.87-1.35-3.48-4.74.35-3.06,1.84-5.87,2.45-7.65.85-2.47,1-4.89.33-3.55-1.52,3-4.34,8.77-5.09,12.75s.38,6.64,2.1,7.62"/><path class="cls-2" d="M378.38,192.05c1-3,1.21-5.9.39-4.29-1.82,3.62-5.24,10.61-6.16,15.44s.47,8,2.55,9.21c2.58,1.47,4.63-.55,6.12-3.62s1.4-6.44.48-5.65c-.77.82-1.22,3.69-2.14,3.92-1.88.47-4.68-1.65-4.21-5.75.43-3.7,2.23-7.1,3-9.26"/><path class="cls-2" d="M160.33,243.74c1.68-3.64,2.29-7.28,1-5.34-2.77,4.34-8,12.76-9.76,18.72s-.47,10.15,2,11.86c3.06,2.14,5.89-.18,8.16-3.86,2.18-3.52,2.61-7.94,1.36-7.06-1.08.95-2,4.5-3.2,4.69-2.44.38-5.68-2.59-4.55-7.69,1-4.61,3.74-8.68,5-11.32"/><path class="cls-2" d="M395.77,279.86c1.29-1.06,12.49-7.1,14.55-8.32,0,0,2.11-3.44,1.48-3.81s-4.73,3.36-7.27,3.46-6-1.77-6.14-3.3c.33-1.16,3.39-2.89,4.5-3s.92,2.45,1.29,2.76,1.84-1.74,2-2.59,0-4.41-2-3.9c-3.21.81-8.05,6.76-8.6,8.63s2.43,3.51,4.61,4.39a11.31,11.31,0,0,0-2.84,1.87,8.56,8.56,0,0,0-1.62,3.77"/><path class="cls-2" d="M357.56,287.33c1.29-1.06,12.49-7.09,14.56-8.32,0,0,2.11-3.44,1.47-3.8s-4.72,3.35-7.27,3.46-6-1.77-6.14-3.3c.33-1.16,3.39-2.9,4.5-3s.93,2.45,1.3,2.76,1.84-1.74,2-2.59,0-4.4-2-3.89c-3.21.81-8,6.75-8.6,8.63s2.44,3.5,4.61,4.39a11,11,0,0,0-2.84,1.87,8.61,8.61,0,0,0-1.62,3.76"/><path class="cls-2" d="M271.5,179.16c1,1.17,7.59,9.53,12.74,14.78s14,13.78,20.48,19.61c1.26,1.14,2.59,2.36,3.95,3.64,1.63,12.56,3.53,28.56,4.32,35.17s.9,14.74.92,16.17,1,1.14,2-2.08c1.31-4.32,1.46-15.5.77-22.89-.44-4.56-1.46-13.11-2.45-21,3.84,3.79,7.46,7.55,9.9,10.36,4.48,5.16,8.26,9,10.56,14.6,1.63,3.93,1.46,7.05,2.13,7.67s1.21-4.16.5-8.72c-1.15-7.4-2.73-10.54-12.23-21.1-3.63-4-7.89-8.26-12.06-12.2-.16-1.22-.31-2.35-.44-3.35-.33-2.47-3.55-23.82-3.8-26.22-.22-2.08-.6-4.53-.57-5.69,0-.93.61-.57,1.53.38s2.52,2.58,2.8,2.44c.89-.47-.11-3.23-1.36-5.7s-5.58-12.25-6.44-12.63c-.44-.2-3,5.93-3.16,7.13a8.45,8.45,0,0,1,1.71,5.23c0,.93.86,9.72,1.9,18,.92,7.33,2.06,14.29,2.18,15.09v.06c-4.3-3.92-8.08-7.25-10.38-9.34-5.37-4.89-17.24-16.47-17.72-18.21-.1-.55.82-.21,2.51.06s3.21.85,2.94,0a5.59,5.59,0,0,0-2.39-2.37c-1.63-1-5.79-3.6-8.88-5.44s-4.63-3.38-5.27-2.94c-.32.22,0,6.51.15,7.3a6.12,6.12,0,0,1,3.13,2.15"/><path class="cls-2" d="M280,167.83a42.44,42.44,0,0,1,9.49.34c-.92.63-7.08,3.75-8.3,4.49s-1.52,1.17-.91,1.1c1.77-.49,5.75-1.1,7.66-2.1,1.8-.84,4.87-4.95,6.06-6.48s1.19-2.3.88-2.71c-1.22-.66-9.07-1.33-12.86-.39-1.05.71-3.1,4.5-3.4,5.29s.11.74,1.38.46"/><path class="cls-2" d="M313.5,167.34a33.87,33.87,0,0,1,7.64.27c-.73.51-5.7,3-6.68,3.62s-1.23,1-.74.89c1.43-.39,4.64-.89,6.17-1.69s3.93-4,4.89-5.23,1-1.85.71-2.18c-1-.54-7.31-1.07-10.36-.31-.85.57-2.5,3.62-2.74,4.26s.08.59,1.11.37"/><path class="cls-2" d="M340.75,167a33.89,33.89,0,0,1,7.64.27c-.73.51-5.7,3-6.68,3.62s-1.23,1-.74.89c1.43-.39,4.89-.89,6.43-1.69s3.17-4,4.13-5.23,1-1.86.71-2.18c-1-.54-6.81-1.07-9.86-.32-.85.58-2.5,3.63-2.75,4.27s.09.59,1.12.37"/><path class="cls-2" d="M323.75,180.26c-1.61,2.54.41,4.59,1.15,6.65-1,.91-2.53.08-3-.72-1.09-1.64-.72-5-2-5.48a18.31,18.31,0,0,0-.54,1.9,8.74,8.74,0,0,1,.73,3.79,2.34,2.34,0,0,1-2,2c-2.83.07-1.44-4.12-2.53-6.5-.22.58-.38,1.21-.65,1.75a9.94,9.94,0,0,1,.35,2,24.23,24.23,0,0,0,.15,2.92c.24,1.2.9,2,1.92,2.08,2.12.16,3.08-1.55,3.4-3,.37,1.44,3.17,3,4.54,1.26,1.83-2.33.37-4.31-.57-6.5-.67-1.61-.48-2.67-.88-2.17"/><path class="cls-2" d="M244.25,173.52c.15,1,.68,1.76,1.56,1.87,1.81.23,2.73-1.21,3.07-2.41.24,1.25,2.58,2.72,3.85,1.27,1.68-1.93.51-3.7-.19-5.62-.5-1.43-.28-2.33-.66-1.91-1.51,2.12.14,4,.68,5.77-.9.74-2.18,0-2.59-.74-.86-1.45-.39-4.31-1.46-4.8a13.57,13.57,0,0,0-.56,1.61,7.62,7.62,0,0,1,.45,3.29,2.05,2.05,0,0,1-1.84,1.64c-2.44-.05-1-3.61-1.87-5.69-.22.48-.39,1-.64,1.47a7.48,7.48,0,0,1,.2,1.73c0,.86-.1,1.78,0,2.52"/><path class="cls-2" d="M302,272a4.27,4.27,0,0,0,.72-2.43c-.15-.81-1.14-4.19-3.07-5s-3.37.93-4.29,3.4h-.63a8.13,8.13,0,0,0-.5,1.89c-.21,1.43-.61,2.35-3.06,4.57a77.32,77.32,0,0,1-13,8.41c-4.32,2.1-7.43,3.92-8.58,4.47s-.81.74.34.4,6.87-2.19,9.16-3.13a55.72,55.72,0,0,0,8.43-4.69c3.74-2.43,6-4.85,6.73-7,.53-1.53.67-2.15.67-2.15a14.42,14.42,0,0,0,3.79,1.38c2.37.54,3.05.37,3.32-.07m-3.22-4.8a3.49,3.49,0,0,1,1.89,2.25,13.5,13.5,0,0,1-4.4-1,2,2,0,0,1,2.51-1.23"/><path class="cls-2" d="M276.66,274.37c-3.32-.46-11.67-1.73-13.72-6.58,1.72-2.5,9.63-5.67,19.53-8.64s20.25-6.8,23-8.65a6.22,6.22,0,0,1,1.79-.14c.49-1.44,3-6.47,3.13-7.53-2.76.16-19.82,1.41-27.4,1.82s-22.18.31-27,.25a85.9,85.9,0,0,1,20.18-9.9q2-.7,3.66-1.26a11.77,11.77,0,0,1,1.6,4.27c.64-.66,1.13-2.86,1-5.11,5.9-1.88,8.94-2.51,10.25-2.86.83-1.07,2.3-5.41,2.52-8.57-.88-1.6-3.64-3.6-6.1-5.32-3.38-2.36-7-4.42-10.67-3.52-5,1.22-6,10.37-4.82,12.31.37.61,1.25,1.69,2.28,3a109,109,0,0,0-10.79,4.88c-7.47,3.94-15.81,8.24-18.24,12.38l-.7.34c-.2.39-1.74,6.8-2,7.49,1.55-.06,13.15,0,21.23-.29s15.14-.51,17.9-.51c-4.09,1-14.83,5-17.91,7.3s-5,5.93-5.08,12.06a28.75,28.75,0,0,1-12.78-9.86c-5.08-6.87-4-13.93-6.06-23.2-2.95-13.45-9.26-24.81-13.19-28.28a41.78,41.78,0,0,0-1.49,8.32s4.92,10.88,7.41,17.83,4.62,13.79,4.52,15.32c-2,4.5-14.2,13.92-24.31,19.43-9.6,5.23-18,5.8-21,2.07a6.2,6.2,0,0,1-1.21-2.56c1.3-.61,2.61-1.22,4-1.83,8.62-3.93,23.95-12.21,27.54-16.55,3.87-5.26,3.82-12.67,1.55-16.91s-5.81-9.14-6.09-10.88c-.22-.81,2.3.34,3.79.42.72-.06.36-1-1.18-2.56-1.24-1.22-6-5.18-7.85-6.73-.46-.39-.8-.24-.9.18-.35,1.58-1.08,5-1.36,6.64l.19.85a2.74,2.74,0,0,1,1.43,1.53,67.58,67.58,0,0,0,4.23,9.07c2.38,4.37,5.82,9.19,6.16,11.63C220.79,249.11,206.7,256.7,193,263a55.52,55.52,0,0,1,4-8.91,10.64,10.64,0,0,0,1.4-2c1.37-2.5,1.5-5.56.67-4.92s-1.23,3.17-2,3.34c-1.67.34-4-1.6-3.42-5.16.53-3.21,2.25-6.11,3-8,1-2.57,1.31-5.11.53-3.73-1.75,3.08-5,9.06-6,13.23s.06,7,1.82,8.12a2.76,2.76,0,0,0,1.89.47,52.22,52.22,0,0,0-3.78,8.46c-5.52,2.47-10.89,4.67-15.34,6.27-16,5.72-27.37,9.09-35.34,11.59l-.31.14c.58-1.89.5-3.51-.12-3-.72.69-1.22,3.17-2,3.33-1.67.34-4-1.6-3.42-5.16.54-3.21,2.25-6.1,3-8,1-2.57,1.31-5.11.53-3.73-1.75,3.09-5,9.06-6,13.23s.06,7,1.82,8.12c2.19,1.38,4-.31,5.49-2.92l.5-1.07a13.43,13.43,0,0,0,2.59-.4c3.65-.82,12.78-2.14,25.33-3.78a71.17,71.17,0,0,0,21.91-6.6c0,.69,0,1.39,0,2.11.33,8.51,5.91,10.92,13.55,9.32,7.36-1.54,17.63-8.29,23.78-12.85,6.42-4.74,10.12-9,11.06-10.47a27.59,27.59,0,0,0,2.3-9.52c.56,5.21,1,12.41,5.94,18.6,4.53,5.68,13.83,13.62,31.31,13.84.05-2.08-.78-8.57-.78-8.57M275.5,221.6c2.51-2.81,7.85-1,11.85,2.59a78.32,78.32,0,0,0-7.92,2.44c-1.82-2.21-3.86-4.33-3.93-5"/><path class="cls-2" d="M177.24,183.1c1.13-.52,4.61-2.08,8.35-4.26a48.36,48.36,0,0,0,9-6.53,11.2,11.2,0,0,0,1.62-1.81c1.12.46,1.89.94,2.37,1.13.72.28,1.69.68,2.32-1.38s-.21-3.38-1.43-5c-1-1.33-2.68-3.33-4-3.83-1.13-.42-1.67,2.1-1.49,2h.75l.15.07a7,7,0,0,0-2.88,4.09c-.13.93.05,1.62,2.28,2.19l.9.27c-1.86,2.2-5.33,4.48-7.7,6.1-3.36,2.3-8.12,5.18-9.47,6s-1.25,1.08-.72.88m20.17-16.21.12-1.1c1.57,1.79,2.73,3.92,2.62,4.22-.72.06-1.62-.61-3.19-1.28a14.61,14.61,0,0,0,.45-1.84m-4.51,0a2.84,2.84,0,0,1,1.87-1.77c1.28-.52,1.85.92,2,2.66l-.38.7-1.15-.4c-1.22-.35-2-.56-2.3-1.19"/><path class="cls-2" d="M260.93,216.77c1.84-1.21,6.91-4.87,9.78-7.26a43.48,43.48,0,0,0,5.94-6.19c1,.65,1.93,1.22,2.78,1.72a6.06,6.06,0,0,1,2.29,2.38c.31-.47,1.71-3,1.16-4.25a39.24,39.24,0,0,0-4.4-2.84c1-2.34,2.48-6.39.42-7.81-1.76-1.21-4.73.79-6.1,3.37-1.14,2.14-1.28,4,.88,5.45l1.77,1.19a115.26,115.26,0,0,1-9.07,8.33c-3.56,3-6.92,5.89-7.51,6.59l-.17.27c-.77-2.16-.56-3.5-1.14-2.78-2.49,3.91.63,7.07,1.77,10.23-1.54,1.4-3.89.12-4.68-1.1-1.68-2.53-1.11-7.65-3.08-8.45a25.1,25.1,0,0,0-.84,2.93s1.5,3.51,1.12,5.83c-.24,1.4-1.48,3-3.11,3.07-4.36.11-2.21-6.34-3.89-10-.34.9-.59,1.86-1,2.69a13.7,13.7,0,0,1,.52,3.06,44.52,44.52,0,0,0,.25,4.5c.36,1.85,1.39,3.08,3,3.19,3.25.26,4.74-2.38,5.23-4.54.56,2.21,4.87,4.63,7,1.93,2.8-3.58.56-6.64-.88-10l-.17-.44c.2.07.95-.26,2.18-1.07m12.73-20.13c1.08-2,3.35-2.17,4-1.12a4.59,4.59,0,0,1-.23,4.18c-2-1.26-3.79-2.49-3.8-3.06"/><path class="cls-2" d="M189.91,204.05c-3.83-.28-5.89-3.79-7.07-8.86s-.46-11.76-.14-13.47-1.49-.83-2.19,3.33-1.4,10.79,1.07,17.74,6.68,9.53,10.36,8.64S198.87,201.9,200,198s6.25-19.72,9.14-20.57c.41,1.94-2.25,6.81-3.1,14.13s.63,16.92,9.92,18.63a17,17,0,0,0,17.89-8.52,32.78,32.78,0,0,0,3.61-10.79c.3,5.62,4.13,14.39,11.57,16.89,7.2,2.42,12.69.21,15.12-2.93,2.16-2.78,3.91-8.51,4.06-12.9s-3.65-12.43-4.5-15a27.07,27.07,0,0,1-1.36-5.21c-.07-.88,1.92,1,3.17,1.4.85.17.56-1.67-.48-2.93s-6.6-9.71-7-9.12a72.3,72.3,0,0,0-2.62,7.52,5.3,5.3,0,0,1,2,3.71,67.88,67.88,0,0,0,2.91,12c1.37,3.75,4,10.93,4.21,12.91-2.66,1.87-8.63,4.25-14.31,1.84s-7.49-5.93-8.11-12.19c-.4-4-.44-11.38-1.87-17.55-.81-3.48-2.5-7-4.52-8.91-.47,1.16-2.61,8.27-2.61,8.27.7,2.05,2.87,8.93,2.8,14.89s-.55,11.78-7.23,15.8-16.18,2.41-18.65-3.85,3-20.37,2.95-24.08-.74-4.22-2.29-3.61-4.72,4.19-7.45,10-3.94,11.65-5.49,16.55-4,9.88-7.86,9.61"/><path class="cls-2" d="M78.63,182.32c4.72-.34,8.71-3.92,9.74-4.87s1.58-2.38.85-1.84c-5.46,4.87-12.76,5-13.17,4.19.19-.81,2.11-2.14,4.91-4a16.87,16.87,0,0,0,4.35-3.72l.31.05c2.08.46,4.48,1.37,5.21.64,1.19-1.18,1.35-3.1.06-5.18-1.1-1.76-3.64-3.4-5.86-4.59s-2.64.71-2.92,1.38-.16,1.16.31,1.17A8.44,8.44,0,0,0,81,168.79a2.31,2.31,0,0,0,.25,1.66,2.76,2.76,0,0,0,1.26.93l1,.3A29.31,29.31,0,0,1,78.93,175c-1.81,1.09-4,3-4.61,5s-.41,2.69,4.31,2.35M87,168.41l.18-1v-.65c1.5,1.09,3.89,3.15,3.74,4.38-.94-.21-2.75-.59-4.46-1a10.94,10.94,0,0,0,.54-1.7m-4.43.32c-1.1-.88,0-1.76.95-2.32,1.25-.73,2-.13,2.63,1.78a7.48,7.48,0,0,1-.91,1.59,13.46,13.46,0,0,1-2.67-1.05"/><path class="cls-2" d="M92.78,235.58c-1.35,1.18-1.88,5-1.6,5.24s4.51,1.66,5.17,2l.3-1.16c2,1.82,4.26,10.86,4.76,10.89s1.22-1,1.69-3.43c.43-2.23.87-5.56,1.32-8.27.43-2.49,1.08-3.91,2.58-4.19s2.6,1.64,3,2.94a22.72,22.72,0,0,0,1.28-4.06c-.25-.82-2.58-3.91-4.48-2.89s-3.11,5.36-3.5,8.07-.68,6.06-1.15,6.59a24.14,24.14,0,0,0-4-8.76c-2.14-2.6-4.65-3.56-5.37-2.94"/><path class="cls-2" d="M74.71,231c1.77-.48,5.75-1.1,7.66-2.09,1.8-.84,4.86-5,6-6.49s1.19-2.3.89-2.71c-1.21-.66-9.07-1.32-12.86-.38-1,.7-3.1,4.49-3.4,5.29s.11.74,1.38.46a41.79,41.79,0,0,1,9.49.33c-.91.64-7.08,3.75-8.3,4.49S74.1,231,74.71,231"/><path class="cls-2" d="M440.05,252.91c-.18-4.6-2.43-11.65-11-22.48-2.95-3.73-7.11-8.6-11.49-13.58-.12-1.7-.24-3.25-.35-4.58-.57-6.86-2.52-20.85-3.36-29.11a49.74,49.74,0,0,1-.19-5.47c0-.92.69-.8,1.61.15s2.31,2.32,2.6,2.23c.63-.22.09-2.31-1.16-4.78s-5.94-12.5-6.8-12.89c-.44-.2-2.66,5.69-2.79,6.89a8.38,8.38,0,0,1,1.68,5.24c.12,3.34,2.14,23.1,3.3,35.55l.06.7c-6.55-7.32-12.73-14-15.27-16.7-.44-.46-.92-1-1.44-1.57-.41-3.33-.8-6.5-1.06-9.12a45.18,45.18,0,0,1-.19-5.47c0-.92.69-.79,1.6.15s2.32,2.33,2.61,2.23c.62-.21.08-2.3-1.17-4.78s-6.13-12.73-7-13.12c-.44-.2-2.75,6.15-2.89,7.35a8.36,8.36,0,0,1,1.69,5.24c0,1.42.41,5.73.91,11.17-4.35-5.16-8.6-10.57-8.9-11.67-.11-.54.81-.21,2.51.07s3.28.78,3-.06a5.71,5.71,0,0,0-2.4-2.37c-1.62-1-5.78-3.6-8.87-5.44s-4.64-3.38-5.28-2.94c-.31.22,0,6.52.15,7.3a4.89,4.89,0,0,1,3.13,1.87c.93,1.23,6.85,9.54,11.54,15.15,1.35,1.62,3.46,4.13,5.93,7,.49,5.18,1,10.52,1.41,15,.95,10.19,4.37,37.07,4.4,45.81-2.52,2.36-7.68,5.67-13,5.74s-8.22-1.34-10.36-5.28c-.66-1.23-1.27-2.46-1.88-3.57a7.11,7.11,0,0,0-7.79-3.4l-.47.12-.85.41a19.3,19.3,0,0,0-6.41,5.82c-3.69,5-6,10.37-8.77,15-2.84,4.86-5,8.13-10,7.35-3.5-.55-6.17-3.56-7.81-7.26a29,29,0,0,0,10.41-13.12c3.19-7.5,4.33-15.95,4-25.45-.27-9-4.35-30-5.42-38.05s-2.62-14.7-2.44-16.42,2.81,2.25,4.17,2.55c.69-.16.32-2.66-1-4.77-.89-1.43-3.72-8-5.57-11.1-.87-1.49-1.08-2.35-1.48-2.52s-3.49,6.39-3.11,7.11a6.77,6.77,0,0,1,1.72,4.26c.2,2.33,2.31,19.47,4.16,32.1,1.39,9.52,4.46,26.82,4.85,39.61a27.58,27.58,0,0,1-1,8.84c-1.32,2.57-3.48,5.41-11.07,10.82-1.18-7.64.1-13.84-1-14.42-1.26.14-1.46,3.7-1.6,8.09a51.21,51.21,0,0,0,.4,7.85c-9.32,6.23-21.64,11.91-27.42,14.93-3.39,1.79-2.17,2.2.7,1.31s18.66-5,27.08-9.46l.91-.5a28.63,28.63,0,0,0,1.58,4.25c2.84,5.89,6.89,9.39,11.28,9,3.69-.28,6.36-4.23,8.7-8.94s6.35-13.82,10.26-17.19a17,17,0,0,1,4.57-2.95,6.4,6.4,0,0,1,5.13.72,5.37,5.37,0,0,1,1.95,2.33,21.6,21.6,0,0,0,4.46,7.08c4.13,4,10.77,3.16,15.76.84a14.84,14.84,0,0,0,8.62-10.21c1.88-7.35,1.58-14.87,1.22-21.55-.41-7.63-1.63-15.42-2.33-23.68-.22-2.66-.65-6.35-1.15-10.36,4.85,5.6,9.88,11.29,12.94,14.39,1.05,1.08,2.16,2.27,3.31,3.52.91,12.5,1.78,28.15,2.25,34.71s.16,14.76.11,16.19.74,1.19,1.88-2c1.53-4.26,2.49-15.42,2.15-22.83-.2-4.4-.64-12.43-1.11-20,3.76,4.48,7.34,9,9.66,12,4.14,5.42,7.94,11.85,9.26,15.87s1.48,5.21,1.74,5.93,1.4-2.22,1.21-6.81"/></g><path id="sword" class="cls-2" d="M370.23,345.71a3.17,3.17,0,0,0-5.77,0H351.51a11.56,11.56,0,0,1,.41-4.29l26.73,0,.75,1.26a13.3,13.3,0,0,0,2.51,3Zm17.7-12.43H355.8a7.51,7.51,0,0,0,3.42-7c-.22-1.66-1.87-2.9-3.87-3.07h-1c-2.44.24-4.21,2-4,3.93l.1.74.12,1.14a11.66,11.66,0,0,1-.4,4.27H112.71c3.53,5.13,10,8.28,16.9,8.27l216.73-.13a7.53,7.53,0,0,0-3.43,7c.26,1.93,2.44,3.3,4.87,3.06s4.21-2,4-3.92l-.1-.74h12.74a3.12,3.12,0,0,0,6,0h12.95v0a17,17,0,0,0,9.78,3c3.43,0,6.2-2.38,6.2-5.31V343c0-5.36-5.07-9.71-11.33-9.71"/></g></svg>